# xmcd
#
# Track frame offsets:
#	150
#	13364
#	26774
#	43262
#	56802
#	70466
#	84995
#	96314
#	111867
#	125112
#	139126
#	153197
#	164819
#	180391
#	190430
#	207387
#	220928
#	235331
#
# Disc length: 3330 seconds
#
# Revision: 0
# Processed by: cddbd v1.5.2PL0 Copyright (c) Steve Scherf et al.
# Submitted via: EasyCDDAExtractor 16.0.6.1
#
DISCID=180d0012
DTITLE=Συλλογικός δίσκος - Τα 45άρια 2.4
DYEAR=2000
DGENRE=Λαϊκή
TTITLE0=Λύδια Γιώτα - Αχ! Ας μπορούσα
TTITLE1=Λαμπράκη Χαρούλα - Η νυχτερίδα
TTITLE2=Μπιθικώτσης Γρηγόρης-Κούρτη Ρία - Έλα μιά νύχτα στην Αθήνα
TTITLE3=Πουλόπουλος Γιάννης - Δώσ' μου την καρδιά μου πίσω
TTITLE4=Τσετίνης Μπάμπης-Χρηστάκης - Έχω δικαίωμα να σ' αγαπώ
TTITLE5=Τσετίνης Μπάμπης-Διαμάντη Λίτσα - Ποιος θα με παρηγορήσει
TTITLE6=Λύδια Γιώτα - Της φτώχειας το λουλούδι
TTITLE7=Αγγελόπουλος Μανώλης - Από γκρεμό και ποταμό
TTITLE8=Μενιδιάτης Μιχάλης-Γκίκα Βούλα - Μην περιμένεις πια
TTITLE9=Καζαντζίδης Στέλιος-Μαρινέλλα - Τώρα που είσαι νέα
TTITLE10=Γαβαλάς Πάνος-Γκίκα Βούλα - Έλα, έλα
TTITLE11=Μπιθικώτσης Γρηγόρης-Γκίκα Βούλα - Καρδιά μου μην παραπονιέσαι
TTITLE12=Αγγελόπουλος Μανώλης - Ρίξτε στο γυαλί φαρμάκι
TTITLE13=Τσαουσάκης Πρόδρομος-Γρίλλη Μαρία - Εκεί που είσαι ήμουνα
TTITLE14=Καζαντζίδης Στέλιος-Διαμάντη Λίτσα - Δεν σε πιστεύω
TTITLE15=Ροδά Ελένη-Κοινούσης Γιώργος - Όταν το πίνεις
TTITLE16=Αναγνωστάκης Πέτρος-Αντωνάτου Νίτσα - Πληροφορίες κακές
TTITLE17=Αναγνωστάκης Πέτρος-Αντωνάτου Νίτσα - Θα φύγω από κοντά σου
EXTD=
EXTT0=
EXTT1=
EXTT2=
EXTT3=
EXTT4=
EXTT5=
EXTT6=
EXTT7=
EXTT8=
EXTT9=
EXTT10=
EXTT11=
EXTT12=
EXTT13=
EXTT14=
EXTT15=
EXTT16=
EXTT17=
PLAYORDER=
